<svg viewBox="0 0 200 200" xmlns="http://www.w3.org/2000/svg">
  <defs>
    <linearGradient id="mainGradient" x1="0%" y1="0%" x2="100%" y2="100%">
      <stop offset="0%" style="stop-color:#ff5a2a;stop-opacity:1" />
      <stop offset="25%" style="stop-color:#ff7a4d;stop-opacity:1" />
      <stop offset="75%" style="stop-color:#e63946;stop-opacity:1" />
      <stop offset="100%" style="stop-color:#0f3460;stop-opacity:1" />
    </linearGradient>
    <filter id="premiumShadow">
      <feDropShadow dx="0" dy="8" stdDeviation="4" flood-opacity="0.25"/>
      <feDropShadow dx="4" dy="4" stdDeviation="6" flood-opacity="0.15"/>
    </filter>
    <radialGradient id="shine" cx="35%" cy="35%">
      <stop offset="0%" style="stop-color:#ffffff;stop-opacity:0.4" />
      <stop offset="100%" style="stop-color:#ffffff;stop-opacity:0" />
    </radialGradient>
  </defs>
  <rect x="20" y="20" width="160" height="160" rx="32" fill="url(#mainGradient)" filter="url(#premiumShadow)"/>
  <rect x="24" y="24" width="152" height="152" rx="28" fill="#0f3460" opacity="0.3"/>
  <ellipse cx="65" cy="65" rx="50" ry="50" fill="url(#shine)"/>
  <g transform="translate(50, 50)">
    <path d="M 15 10 L 35 10 Q 45 10 45 25 L 45 75 Q 45 90 35 90 L 15 90 Z" 
          fill="none" stroke="#ffffff" stroke-width="8" stroke-linecap="round" stroke-linejoin="round"/>
    <path d="M 15 10 L 35 10 Q 45 10 45 25 L 45 75 Q 45 90 35 90 L 15 90 Z" 
          fill="url(#mainGradient)" opacity="0.15"/>
  </g>
  <g transform="translate(105, 50)">
    <path d="M 10 10 L 30 10 L 30 45 L 40 45 Q 50 45 50 60 L 50 75 Q 50 90 40 90 L 10 90 Z" 
          fill="none" stroke="#ffffff" stroke-width="8" stroke-linecap="round" stroke-linejoin="round"/>
    <path d="M 10 25 L 30 25" stroke="#ffffff" stroke-width="8" stroke-linecap="round"/>
    <path d="M 10 10 L 30 10 L 30 45 L 40 45 Q 50 45 50 60 L 50 75 Q 50 90 40 90 L 10 90 Z" 
          fill="url(#mainGradient)" opacity="0.15"/>
  </g>
  <line x1="50" y1="155" x2="150" y2="155" stroke="#ff5a2a" stroke-width="4" stroke-linecap="round" opacity="0.8"/>
  <line x1="60" y1="162" x2="140" y2="162" stroke="#ff7a4d" stroke-width="2" stroke-linecap="round" opacity="0.6"/>
  <rect x="30" y="30" width="20" height="3" fill="#ff5a2a" opacity="0.7"/>
  <rect x="30" y="30" width="3" height="20" fill="#ff5a2a" opacity="0.7"/>
</svg>
